<mxfile host="app.diagrams.net" agent="Mozilla/5.0 (X11; Linux x86_64; rv:134.0) Gecko/20100101 Firefox/134.0" version="24.8.6">
  <diagram name="Seite-1" id="KlUUx6PCSyj_rlglhxMy">
    <mxGraphModel dx="4771" dy="2040" grid="1" gridSize="10" guides="1" tooltips="1" connect="1" arrows="1" fold="1" page="1" pageScale="1" pageWidth="1000" pageHeight="1000" math="0" shadow="0">
      <root>
        <mxCell id="0" />
        <mxCell id="1" parent="0" />
        <mxCell id="tTwz_c5ANhp3bgcHJJ_s-1" value="Adapter" style="shape=hexagon;perimeter=hexagonPerimeter2;whiteSpace=wrap;html=1;fixedSize=1;size=230;verticalAlign=top;fontSize=24;" vertex="1" parent="1">
          <mxGeometry x="-680" y="60" width="2350" height="920" as="geometry" />
        </mxCell>
        <mxCell id="tTwz_c5ANhp3bgcHJJ_s-93" value="" style="rounded=1;whiteSpace=wrap;html=1;dashed=1;fillColor=none;" vertex="1" parent="1">
          <mxGeometry x="-510" y="308.75" width="290" height="561.25" as="geometry" />
        </mxCell>
        <mxCell id="tTwz_c5ANhp3bgcHJJ_s-2" value="Application und Ports" style="shape=hexagon;perimeter=hexagonPerimeter2;whiteSpace=wrap;html=1;fixedSize=1;size=192;fillColor=#ffe6cc;strokeColor=#d79b00;verticalAlign=top;fontSize=24;" vertex="1" parent="1">
          <mxGeometry x="-120" y="190" width="1240" height="720" as="geometry" />
        </mxCell>
        <mxCell id="tTwz_c5ANhp3bgcHJJ_s-3" value="Domain" style="shape=hexagon;perimeter=hexagonPerimeter2;whiteSpace=wrap;html=1;fixedSize=1;size=72;fillColor=#e1d5e7;strokeColor=#9673a6;verticalAlign=top;fontSize=24;" vertex="1" parent="1">
          <mxGeometry x="290" y="260" width="420" height="382.24" as="geometry" />
        </mxCell>
        <mxCell id="tTwz_c5ANhp3bgcHJJ_s-4" value="" style="endArrow=none;dashed=1;html=1;dashPattern=1 3;strokeWidth=2;rounded=0;fillColor=#d5e8d4;strokeColor=#82b366;" edge="1" parent="1">
          <mxGeometry width="50" height="50" relative="1" as="geometry">
            <mxPoint x="499" y="1030" as="sourcePoint" />
            <mxPoint x="499" y="5" as="targetPoint" />
          </mxGeometry>
        </mxCell>
        <mxCell id="tTwz_c5ANhp3bgcHJJ_s-12" style="edgeStyle=orthogonalEdgeStyle;rounded=0;orthogonalLoop=1;jettySize=auto;html=1;entryX=0.5;entryY=0;entryDx=0;entryDy=0;" edge="1" parent="1" source="tTwz_c5ANhp3bgcHJJ_s-5" target="tTwz_c5ANhp3bgcHJJ_s-6">
          <mxGeometry relative="1" as="geometry" />
        </mxCell>
        <mxCell id="tTwz_c5ANhp3bgcHJJ_s-5" value="Recipe" style="rounded=0;whiteSpace=wrap;html=1;" vertex="1" parent="1">
          <mxGeometry x="350" y="320" width="130" height="30" as="geometry" />
        </mxCell>
        <mxCell id="tTwz_c5ANhp3bgcHJJ_s-13" style="edgeStyle=orthogonalEdgeStyle;rounded=0;orthogonalLoop=1;jettySize=auto;html=1;" edge="1" parent="1" source="tTwz_c5ANhp3bgcHJJ_s-6" target="tTwz_c5ANhp3bgcHJJ_s-7">
          <mxGeometry relative="1" as="geometry" />
        </mxCell>
        <mxCell id="tTwz_c5ANhp3bgcHJJ_s-6" value="Step" style="rounded=0;whiteSpace=wrap;html=1;" vertex="1" parent="1">
          <mxGeometry x="350" y="370.4" width="130" height="30" as="geometry" />
        </mxCell>
        <mxCell id="tTwz_c5ANhp3bgcHJJ_s-7" value="QuantifiedIngredient" style="rounded=0;whiteSpace=wrap;html=1;" vertex="1" parent="1">
          <mxGeometry x="350" y="420" width="130" height="30" as="geometry" />
        </mxCell>
        <mxCell id="tTwz_c5ANhp3bgcHJJ_s-9" value="AssociatedTags" style="rounded=0;whiteSpace=wrap;html=1;" vertex="1" parent="1">
          <mxGeometry x="520" y="395.59999999999997" width="130" height="29.6" as="geometry" />
        </mxCell>
        <mxCell id="tTwz_c5ANhp3bgcHJJ_s-10" value="Ingredient" style="rounded=0;whiteSpace=wrap;html=1;" vertex="1" parent="1">
          <mxGeometry x="520" y="345.59999999999997" width="130" height="29.6" as="geometry" />
        </mxCell>
        <mxCell id="tTwz_c5ANhp3bgcHJJ_s-14" value="&lt;font style=&quot;font-size: 10px;&quot; color=&quot;#77767b&quot;&gt;&amp;lt;&amp;lt;interface&amp;gt;&amp;gt;&lt;/font&gt;&lt;br&gt;&lt;div&gt;RecipeService&lt;/div&gt;" style="rounded=0;whiteSpace=wrap;html=1;" vertex="1" parent="1">
          <mxGeometry x="350" y="470" width="185" height="30" as="geometry" />
        </mxCell>
        <mxCell id="tTwz_c5ANhp3bgcHJJ_s-15" value="&lt;font color=&quot;#77767b&quot; style=&quot;font-size: 10px;&quot;&gt;&amp;lt;&amp;lt;interface&amp;gt;&amp;gt;&lt;/font&gt;&lt;br&gt;&lt;div&gt;StepService&lt;/div&gt;" style="rounded=0;whiteSpace=wrap;html=1;" vertex="1" parent="1">
          <mxGeometry x="380" y="510" width="185" height="30" as="geometry" />
        </mxCell>
        <mxCell id="tTwz_c5ANhp3bgcHJJ_s-16" value="&lt;font style=&quot;font-size: 10px;&quot; color=&quot;#77767b&quot;&gt;&amp;lt;&amp;lt;interface&amp;gt;&amp;gt;&lt;/font&gt;&lt;br&gt;&lt;div&gt;QuantifiedIngredientService&lt;/div&gt;" style="rounded=0;whiteSpace=wrap;html=1;" vertex="1" parent="1">
          <mxGeometry x="415" y="550" width="185" height="30" as="geometry" />
        </mxCell>
        <mxCell id="tTwz_c5ANhp3bgcHJJ_s-17" value="&lt;font style=&quot;font-size: 10px;&quot; color=&quot;#77767b&quot;&gt;&amp;lt;&amp;lt;interface&amp;gt;&amp;gt;&lt;/font&gt;&lt;br&gt;&lt;div&gt;IngredientService&lt;/div&gt;" style="rounded=0;whiteSpace=wrap;html=1;" vertex="1" parent="1">
          <mxGeometry x="450" y="590" width="185" height="30" as="geometry" />
        </mxCell>
        <mxCell id="tTwz_c5ANhp3bgcHJJ_s-22" style="edgeStyle=orthogonalEdgeStyle;rounded=0;orthogonalLoop=1;jettySize=auto;html=1;endArrow=block;endFill=0;dashed=1;exitX=0.75;exitY=0;exitDx=0;exitDy=0;" edge="1" parent="1" source="tTwz_c5ANhp3bgcHJJ_s-18" target="tTwz_c5ANhp3bgcHJJ_s-14">
          <mxGeometry relative="1" as="geometry">
            <Array as="points">
              <mxPoint x="191" y="485" />
            </Array>
          </mxGeometry>
        </mxCell>
        <mxCell id="tTwz_c5ANhp3bgcHJJ_s-26" style="edgeStyle=orthogonalEdgeStyle;rounded=0;orthogonalLoop=1;jettySize=auto;html=1;" edge="1" parent="1" source="tTwz_c5ANhp3bgcHJJ_s-18" target="tTwz_c5ANhp3bgcHJJ_s-21">
          <mxGeometry relative="1" as="geometry">
            <Array as="points">
              <mxPoint x="80" y="875" />
            </Array>
          </mxGeometry>
        </mxCell>
        <mxCell id="tTwz_c5ANhp3bgcHJJ_s-33" style="edgeStyle=orthogonalEdgeStyle;rounded=0;orthogonalLoop=1;jettySize=auto;html=1;" edge="1" parent="1" source="tTwz_c5ANhp3bgcHJJ_s-18" target="tTwz_c5ANhp3bgcHJJ_s-28">
          <mxGeometry relative="1" as="geometry">
            <Array as="points">
              <mxPoint x="740" y="689" />
              <mxPoint x="740" y="515" />
            </Array>
          </mxGeometry>
        </mxCell>
        <mxCell id="tTwz_c5ANhp3bgcHJJ_s-36" style="edgeStyle=orthogonalEdgeStyle;rounded=0;orthogonalLoop=1;jettySize=auto;html=1;" edge="1" parent="1" source="tTwz_c5ANhp3bgcHJJ_s-18" target="tTwz_c5ANhp3bgcHJJ_s-35">
          <mxGeometry relative="1" as="geometry">
            <Array as="points">
              <mxPoint x="720" y="689" />
              <mxPoint x="720" y="410" />
            </Array>
          </mxGeometry>
        </mxCell>
        <mxCell id="tTwz_c5ANhp3bgcHJJ_s-18" value="&lt;div&gt;RecipeServiceImpl&lt;/div&gt;" style="rounded=0;whiteSpace=wrap;html=1;" vertex="1" parent="1">
          <mxGeometry x="52" y="674" width="185" height="30" as="geometry" />
        </mxCell>
        <mxCell id="tTwz_c5ANhp3bgcHJJ_s-32" style="edgeStyle=orthogonalEdgeStyle;rounded=0;orthogonalLoop=1;jettySize=auto;html=1;" edge="1" parent="1" source="tTwz_c5ANhp3bgcHJJ_s-19" target="tTwz_c5ANhp3bgcHJJ_s-29">
          <mxGeometry relative="1" as="geometry">
            <Array as="points">
              <mxPoint x="760" y="739" />
              <mxPoint x="760" y="555" />
            </Array>
          </mxGeometry>
        </mxCell>
        <mxCell id="tTwz_c5ANhp3bgcHJJ_s-19" value="StepServiceImpl" style="rounded=0;whiteSpace=wrap;html=1;" vertex="1" parent="1">
          <mxGeometry x="118" y="724" width="185" height="30" as="geometry" />
        </mxCell>
        <mxCell id="tTwz_c5ANhp3bgcHJJ_s-31" style="edgeStyle=orthogonalEdgeStyle;rounded=0;orthogonalLoop=1;jettySize=auto;html=1;" edge="1" parent="1" source="tTwz_c5ANhp3bgcHJJ_s-20" target="tTwz_c5ANhp3bgcHJJ_s-30">
          <mxGeometry relative="1" as="geometry">
            <Array as="points">
              <mxPoint x="780" y="790" />
              <mxPoint x="780" y="595" />
            </Array>
          </mxGeometry>
        </mxCell>
        <mxCell id="tTwz_c5ANhp3bgcHJJ_s-20" value="QuantifiedIngredientServiceImpl" style="rounded=0;whiteSpace=wrap;html=1;" vertex="1" parent="1">
          <mxGeometry x="177" y="774" width="185" height="30" as="geometry" />
        </mxCell>
        <mxCell id="tTwz_c5ANhp3bgcHJJ_s-41" style="edgeStyle=orthogonalEdgeStyle;rounded=0;orthogonalLoop=1;jettySize=auto;html=1;entryX=0;entryY=0.5;entryDx=0;entryDy=0;" edge="1" parent="1" source="tTwz_c5ANhp3bgcHJJ_s-21" target="tTwz_c5ANhp3bgcHJJ_s-39">
          <mxGeometry relative="1" as="geometry">
            <Array as="points">
              <mxPoint x="560" y="839" />
              <mxPoint x="560" y="817" />
            </Array>
          </mxGeometry>
        </mxCell>
        <mxCell id="tTwz_c5ANhp3bgcHJJ_s-43" style="edgeStyle=orthogonalEdgeStyle;rounded=0;orthogonalLoop=1;jettySize=auto;html=1;" edge="1" parent="1" source="tTwz_c5ANhp3bgcHJJ_s-21" target="tTwz_c5ANhp3bgcHJJ_s-38">
          <mxGeometry relative="1" as="geometry">
            <Array as="points">
              <mxPoint x="560" y="839" />
              <mxPoint x="560" y="861" />
            </Array>
          </mxGeometry>
        </mxCell>
        <mxCell id="tTwz_c5ANhp3bgcHJJ_s-21" value="&lt;div&gt;IngredientServiceImpl&lt;/div&gt;" style="rounded=0;whiteSpace=wrap;html=1;" vertex="1" parent="1">
          <mxGeometry x="237" y="824" width="185" height="30" as="geometry" />
        </mxCell>
        <mxCell id="tTwz_c5ANhp3bgcHJJ_s-23" style="edgeStyle=orthogonalEdgeStyle;rounded=0;orthogonalLoop=1;jettySize=auto;html=1;endArrow=block;endFill=0;dashed=1;exitX=0.75;exitY=0;exitDx=0;exitDy=0;" edge="1" parent="1" source="tTwz_c5ANhp3bgcHJJ_s-19" target="tTwz_c5ANhp3bgcHJJ_s-15">
          <mxGeometry relative="1" as="geometry">
            <mxPoint x="360" y="660" as="sourcePoint" />
            <mxPoint x="360" y="510" as="targetPoint" />
            <Array as="points">
              <mxPoint x="251" y="525" />
            </Array>
          </mxGeometry>
        </mxCell>
        <mxCell id="tTwz_c5ANhp3bgcHJJ_s-24" style="edgeStyle=orthogonalEdgeStyle;rounded=0;orthogonalLoop=1;jettySize=auto;html=1;endArrow=block;endFill=0;dashed=1;exitX=0.75;exitY=0;exitDx=0;exitDy=0;" edge="1" parent="1" source="tTwz_c5ANhp3bgcHJJ_s-20" target="tTwz_c5ANhp3bgcHJJ_s-16">
          <mxGeometry relative="1" as="geometry">
            <mxPoint x="429" y="700" as="sourcePoint" />
            <mxPoint x="390" y="550" as="targetPoint" />
            <Array as="points">
              <mxPoint x="316" y="565" />
            </Array>
          </mxGeometry>
        </mxCell>
        <mxCell id="tTwz_c5ANhp3bgcHJJ_s-25" style="edgeStyle=orthogonalEdgeStyle;rounded=0;orthogonalLoop=1;jettySize=auto;html=1;endArrow=block;endFill=0;dashed=1;exitX=0.75;exitY=0;exitDx=0;exitDy=0;" edge="1" parent="1" source="tTwz_c5ANhp3bgcHJJ_s-21" target="tTwz_c5ANhp3bgcHJJ_s-17">
          <mxGeometry relative="1" as="geometry">
            <mxPoint x="379" y="690" as="sourcePoint" />
            <mxPoint x="450" y="620" as="targetPoint" />
            <Array as="points">
              <mxPoint x="376" y="605" />
            </Array>
          </mxGeometry>
        </mxCell>
        <mxCell id="tTwz_c5ANhp3bgcHJJ_s-28" value="&lt;font style=&quot;font-size: 10px;&quot; color=&quot;#77767b&quot;&gt;&amp;lt;&amp;lt;interface&amp;gt;&amp;gt;&lt;/font&gt;&lt;br&gt;&lt;div&gt;RecipeRepository&lt;/div&gt;" style="rounded=0;whiteSpace=wrap;html=1;" vertex="1" parent="1">
          <mxGeometry x="800" y="500" width="185" height="30" as="geometry" />
        </mxCell>
        <mxCell id="tTwz_c5ANhp3bgcHJJ_s-29" value="&lt;font style=&quot;font-size: 10px;&quot; color=&quot;#77767b&quot;&gt;&amp;lt;&amp;lt;interface&amp;gt;&amp;gt;&lt;/font&gt;&lt;br&gt;&lt;div&gt;StepRepository&lt;/div&gt;" style="rounded=0;whiteSpace=wrap;html=1;" vertex="1" parent="1">
          <mxGeometry x="800" y="540" width="185" height="30" as="geometry" />
        </mxCell>
        <mxCell id="tTwz_c5ANhp3bgcHJJ_s-30" value="&lt;font style=&quot;font-size: 10px;&quot; color=&quot;#77767b&quot;&gt;&amp;lt;&amp;lt;interface&amp;gt;&amp;gt;&lt;/font&gt;&lt;br&gt;&lt;div&gt;QuantifiedIngredientRepository&lt;/div&gt;" style="rounded=0;whiteSpace=wrap;html=1;" vertex="1" parent="1">
          <mxGeometry x="800" y="580" width="185" height="30" as="geometry" />
        </mxCell>
        <mxCell id="tTwz_c5ANhp3bgcHJJ_s-35" value="&lt;font style=&quot;font-size: 10px;&quot; color=&quot;#77767b&quot;&gt;&amp;lt;&amp;lt;interface&amp;gt;&amp;gt;&lt;/font&gt;&lt;br&gt;&lt;div&gt;RecipeEvents&lt;/div&gt;" style="rounded=0;whiteSpace=wrap;html=1;" vertex="1" parent="1">
          <mxGeometry x="760" y="395.6" width="185" height="30" as="geometry" />
        </mxCell>
        <mxCell id="tTwz_c5ANhp3bgcHJJ_s-38" value="&lt;font style=&quot;font-size: 10px;&quot; color=&quot;#77767b&quot;&gt;&amp;lt;&amp;lt;interface&amp;gt;&amp;gt;&lt;/font&gt;&lt;br&gt;&lt;div&gt;IngredientProvider&lt;/div&gt;" style="rounded=0;whiteSpace=wrap;html=1;" vertex="1" parent="1">
          <mxGeometry x="700" y="846" width="185" height="30" as="geometry" />
        </mxCell>
        <mxCell id="tTwz_c5ANhp3bgcHJJ_s-39" value="&lt;font style=&quot;font-size: 10px;&quot; color=&quot;#77767b&quot;&gt;&amp;lt;&amp;lt;interface&amp;gt;&amp;gt;&lt;/font&gt;&lt;br&gt;&lt;div&gt;IngredientCacheProvider&lt;/div&gt;" style="rounded=0;whiteSpace=wrap;html=1;" vertex="1" parent="1">
          <mxGeometry x="700" y="802" width="185" height="30" as="geometry" />
        </mxCell>
        <mxCell id="tTwz_c5ANhp3bgcHJJ_s-45" value="&lt;div&gt;GrpcIngredientProviderImpl&lt;/div&gt;" style="rounded=0;whiteSpace=wrap;html=1;" vertex="1" parent="1">
          <mxGeometry x="1070" y="876" width="210" height="30" as="geometry" />
        </mxCell>
        <mxCell id="tTwz_c5ANhp3bgcHJJ_s-46" value="RedisIngredientCacheProviderImpl" style="rounded=0;whiteSpace=wrap;html=1;" vertex="1" parent="1">
          <mxGeometry x="1070" y="804" width="210" height="30" as="geometry" />
        </mxCell>
        <mxCell id="tTwz_c5ANhp3bgcHJJ_s-47" style="edgeStyle=orthogonalEdgeStyle;rounded=0;orthogonalLoop=1;jettySize=auto;html=1;endArrow=block;endFill=0;dashed=1;" edge="1" parent="1" source="tTwz_c5ANhp3bgcHJJ_s-45" target="tTwz_c5ANhp3bgcHJJ_s-38">
          <mxGeometry relative="1" as="geometry">
            <mxPoint x="386" y="834" as="sourcePoint" />
            <mxPoint x="460" y="615" as="targetPoint" />
            <Array as="points">
              <mxPoint x="970" y="890" />
              <mxPoint x="970" y="861" />
            </Array>
          </mxGeometry>
        </mxCell>
        <mxCell id="tTwz_c5ANhp3bgcHJJ_s-48" style="edgeStyle=orthogonalEdgeStyle;rounded=0;orthogonalLoop=1;jettySize=auto;html=1;endArrow=block;endFill=0;dashed=1;" edge="1" parent="1" source="tTwz_c5ANhp3bgcHJJ_s-46" target="tTwz_c5ANhp3bgcHJJ_s-39">
          <mxGeometry relative="1" as="geometry">
            <mxPoint x="790" y="1020" as="sourcePoint" />
            <mxPoint x="803" y="886" as="targetPoint" />
            <Array as="points">
              <mxPoint x="940" y="817" />
            </Array>
          </mxGeometry>
        </mxCell>
        <mxCell id="tTwz_c5ANhp3bgcHJJ_s-49" value="&lt;font style=&quot;font-size: 8px;&quot;&gt;IngredientCacheDto&lt;/font&gt;" style="rounded=0;whiteSpace=wrap;html=1;" vertex="1" parent="1">
          <mxGeometry x="1080" y="844" width="100" height="10" as="geometry" />
        </mxCell>
        <mxCell id="tTwz_c5ANhp3bgcHJJ_s-50" value="RabbitMQRecipeEventsImpl" style="rounded=0;whiteSpace=wrap;html=1;" vertex="1" parent="1">
          <mxGeometry x="1070" y="340.4" width="185" height="30" as="geometry" />
        </mxCell>
        <mxCell id="tTwz_c5ANhp3bgcHJJ_s-51" style="edgeStyle=orthogonalEdgeStyle;rounded=0;orthogonalLoop=1;jettySize=auto;html=1;endArrow=block;endFill=0;dashed=1;" edge="1" parent="1" source="tTwz_c5ANhp3bgcHJJ_s-50" target="tTwz_c5ANhp3bgcHJJ_s-35">
          <mxGeometry relative="1" as="geometry">
            <mxPoint x="950" y="1020" as="sourcePoint" />
            <mxPoint x="895" y="827" as="targetPoint" />
            <Array as="points">
              <mxPoint x="853" y="355" />
            </Array>
          </mxGeometry>
        </mxCell>
        <mxCell id="tTwz_c5ANhp3bgcHJJ_s-52" value="&lt;font style=&quot;font-size: 8px;&quot;&gt;RecipeEventDto&lt;/font&gt;" style="rounded=0;whiteSpace=wrap;html=1;" vertex="1" parent="1">
          <mxGeometry x="1080" y="380.4" width="100" height="10" as="geometry" />
        </mxCell>
        <mxCell id="tTwz_c5ANhp3bgcHJJ_s-53" value="&lt;font style=&quot;font-size: 8px;&quot;&gt;StepEventDto&lt;/font&gt;" style="rounded=0;whiteSpace=wrap;html=1;" vertex="1" parent="1">
          <mxGeometry x="1080" y="395.59999999999997" width="100" height="10" as="geometry" />
        </mxCell>
        <mxCell id="tTwz_c5ANhp3bgcHJJ_s-54" value="&lt;font style=&quot;font-size: 7px;&quot;&gt;QuantifiedIngredientEventDto&lt;br&gt;&lt;/font&gt;" style="rounded=0;whiteSpace=wrap;html=1;" vertex="1" parent="1">
          <mxGeometry x="1080" y="409.99999999999994" width="100" height="10" as="geometry" />
        </mxCell>
        <mxCell id="tTwz_c5ANhp3bgcHJJ_s-55" value="&lt;font style=&quot;font-size: 8px;&quot;&gt;RecipeDeletedEventDto&lt;/font&gt;" style="rounded=0;whiteSpace=wrap;html=1;" vertex="1" parent="1">
          <mxGeometry x="1080" y="425.2" width="100" height="10" as="geometry" />
        </mxCell>
        <mxCell id="tTwz_c5ANhp3bgcHJJ_s-56" value="&lt;font style=&quot;font-size: 10px;&quot; color=&quot;#77767b&quot;&gt;&amp;lt;&amp;lt;interface&amp;gt;&amp;gt;&lt;/font&gt;&lt;br&gt;&lt;div&gt;JpaRecipeCrudRepository&lt;/div&gt;" style="rounded=0;whiteSpace=wrap;html=1;" vertex="1" parent="1">
          <mxGeometry x="1390" y="500" width="185" height="30" as="geometry" />
        </mxCell>
        <mxCell id="tTwz_c5ANhp3bgcHJJ_s-58" style="edgeStyle=orthogonalEdgeStyle;rounded=0;orthogonalLoop=1;jettySize=auto;html=1;" edge="1" parent="1" source="tTwz_c5ANhp3bgcHJJ_s-57" target="tTwz_c5ANhp3bgcHJJ_s-56">
          <mxGeometry relative="1" as="geometry">
            <Array as="points">
              <mxPoint x="1330" y="525" />
            </Array>
          </mxGeometry>
        </mxCell>
        <mxCell id="tTwz_c5ANhp3bgcHJJ_s-57" value="&lt;div&gt;JpaRecipeRepositoryImpl&lt;/div&gt;" style="rounded=0;whiteSpace=wrap;html=1;" vertex="1" parent="1">
          <mxGeometry x="1150" y="500" width="185" height="30" as="geometry" />
        </mxCell>
        <mxCell id="tTwz_c5ANhp3bgcHJJ_s-59" value="&lt;font style=&quot;font-size: 8px;&quot;&gt;RecipeEntity&lt;/font&gt;" style="rounded=0;whiteSpace=wrap;html=1;" vertex="1" parent="1">
          <mxGeometry x="1400" y="540" width="100" height="10" as="geometry" />
        </mxCell>
        <mxCell id="tTwz_c5ANhp3bgcHJJ_s-60" style="edgeStyle=orthogonalEdgeStyle;rounded=0;orthogonalLoop=1;jettySize=auto;html=1;endArrow=block;endFill=0;dashed=1;" edge="1" parent="1" source="tTwz_c5ANhp3bgcHJJ_s-57" target="tTwz_c5ANhp3bgcHJJ_s-28">
          <mxGeometry relative="1" as="geometry">
            <mxPoint x="1080" y="365" as="sourcePoint" />
            <mxPoint x="863" y="406" as="targetPoint" />
            <Array as="points">
              <mxPoint x="1070" y="515" />
              <mxPoint x="1070" y="515" />
            </Array>
          </mxGeometry>
        </mxCell>
        <mxCell id="tTwz_c5ANhp3bgcHJJ_s-69" style="edgeStyle=orthogonalEdgeStyle;rounded=0;orthogonalLoop=1;jettySize=auto;html=1;" edge="1" parent="1" source="tTwz_c5ANhp3bgcHJJ_s-61" target="tTwz_c5ANhp3bgcHJJ_s-62">
          <mxGeometry relative="1" as="geometry" />
        </mxCell>
        <mxCell id="tTwz_c5ANhp3bgcHJJ_s-61" value="&lt;div&gt;JpaStepRepositoryImpl&lt;/div&gt;" style="rounded=0;whiteSpace=wrap;html=1;" vertex="1" parent="1">
          <mxGeometry x="1150" y="570" width="185" height="30" as="geometry" />
        </mxCell>
        <mxCell id="tTwz_c5ANhp3bgcHJJ_s-62" value="&lt;font style=&quot;font-size: 10px;&quot; color=&quot;#77767b&quot;&gt;&amp;lt;&amp;lt;interface&amp;gt;&amp;gt;&lt;/font&gt;&lt;br&gt;&lt;div&gt;JpaStepCrudRepository&lt;/div&gt;" style="rounded=0;whiteSpace=wrap;html=1;" vertex="1" parent="1">
          <mxGeometry x="1390" y="570" width="185" height="30" as="geometry" />
        </mxCell>
        <mxCell id="tTwz_c5ANhp3bgcHJJ_s-63" value="&lt;font style=&quot;font-size: 8px;&quot;&gt;StepEntity&lt;/font&gt;" style="rounded=0;whiteSpace=wrap;html=1;" vertex="1" parent="1">
          <mxGeometry x="1400" y="610" width="100" height="10" as="geometry" />
        </mxCell>
        <mxCell id="tTwz_c5ANhp3bgcHJJ_s-70" style="edgeStyle=orthogonalEdgeStyle;rounded=0;orthogonalLoop=1;jettySize=auto;html=1;" edge="1" parent="1" source="tTwz_c5ANhp3bgcHJJ_s-64" target="tTwz_c5ANhp3bgcHJJ_s-65">
          <mxGeometry relative="1" as="geometry" />
        </mxCell>
        <mxCell id="tTwz_c5ANhp3bgcHJJ_s-64" value="&lt;div style=&quot;font-size: 13px;&quot;&gt;&lt;font style=&quot;font-size: 10px;&quot;&gt;JpaQuantifiedIngredientRepositoryImpl&lt;/font&gt;&lt;/div&gt;" style="rounded=0;whiteSpace=wrap;html=1;" vertex="1" parent="1">
          <mxGeometry x="1150" y="640" width="185" height="30" as="geometry" />
        </mxCell>
        <mxCell id="tTwz_c5ANhp3bgcHJJ_s-65" value="&lt;font style=&quot;font-size: 10px;&quot; color=&quot;#77767b&quot;&gt;&amp;lt;&amp;lt;interface&amp;gt;&amp;gt;&lt;/font&gt;&lt;br&gt;&lt;div&gt;&lt;font style=&quot;font-size: 10px;&quot;&gt;JpaQuantifiedIngredientCrudRepository&lt;/font&gt;&lt;/div&gt;" style="rounded=0;whiteSpace=wrap;html=1;" vertex="1" parent="1">
          <mxGeometry x="1390" y="640" width="185" height="30" as="geometry" />
        </mxCell>
        <mxCell id="tTwz_c5ANhp3bgcHJJ_s-66" value="&lt;font style=&quot;font-size: 8px;&quot;&gt;QuantifiedIngredientEntity&lt;/font&gt;" style="rounded=0;whiteSpace=wrap;html=1;" vertex="1" parent="1">
          <mxGeometry x="1400" y="680" width="100" height="10" as="geometry" />
        </mxCell>
        <mxCell id="tTwz_c5ANhp3bgcHJJ_s-67" style="edgeStyle=orthogonalEdgeStyle;rounded=0;orthogonalLoop=1;jettySize=auto;html=1;endArrow=block;endFill=0;dashed=1;exitX=0;exitY=0.5;exitDx=0;exitDy=0;" edge="1" parent="1" source="tTwz_c5ANhp3bgcHJJ_s-61" target="tTwz_c5ANhp3bgcHJJ_s-29">
          <mxGeometry relative="1" as="geometry">
            <mxPoint x="1160" y="525" as="sourcePoint" />
            <mxPoint x="995" y="525" as="targetPoint" />
            <Array as="points">
              <mxPoint x="1070" y="585" />
              <mxPoint x="1070" y="555" />
            </Array>
          </mxGeometry>
        </mxCell>
        <mxCell id="tTwz_c5ANhp3bgcHJJ_s-68" style="edgeStyle=orthogonalEdgeStyle;rounded=0;orthogonalLoop=1;jettySize=auto;html=1;endArrow=block;endFill=0;dashed=1;" edge="1" parent="1" source="tTwz_c5ANhp3bgcHJJ_s-64" target="tTwz_c5ANhp3bgcHJJ_s-30">
          <mxGeometry relative="1" as="geometry">
            <mxPoint x="1253" y="580" as="sourcePoint" />
            <mxPoint x="995" y="565" as="targetPoint" />
            <Array as="points">
              <mxPoint x="893" y="655" />
            </Array>
          </mxGeometry>
        </mxCell>
        <mxCell id="tTwz_c5ANhp3bgcHJJ_s-72" style="edgeStyle=orthogonalEdgeStyle;rounded=0;orthogonalLoop=1;jettySize=auto;html=1;" edge="1" parent="1" source="tTwz_c5ANhp3bgcHJJ_s-71" target="tTwz_c5ANhp3bgcHJJ_s-14">
          <mxGeometry relative="1" as="geometry">
            <Array as="points">
              <mxPoint x="130" y="135" />
              <mxPoint x="130" y="485" />
            </Array>
          </mxGeometry>
        </mxCell>
        <mxCell id="tTwz_c5ANhp3bgcHJJ_s-71" value="GrpcRecipeController" style="rounded=0;whiteSpace=wrap;html=1;" vertex="1" parent="1">
          <mxGeometry x="-440" y="120" width="210" height="30" as="geometry" />
        </mxCell>
        <mxCell id="tTwz_c5ANhp3bgcHJJ_s-79" style="edgeStyle=orthogonalEdgeStyle;rounded=0;orthogonalLoop=1;jettySize=auto;html=1;" edge="1" parent="1" source="tTwz_c5ANhp3bgcHJJ_s-73" target="tTwz_c5ANhp3bgcHJJ_s-14">
          <mxGeometry relative="1" as="geometry">
            <Array as="points">
              <mxPoint x="-240" y="355" />
              <mxPoint x="20" y="355" />
              <mxPoint x="20" y="485" />
            </Array>
          </mxGeometry>
        </mxCell>
        <mxCell id="tTwz_c5ANhp3bgcHJJ_s-73" value="RestV1RecipeController" style="rounded=0;whiteSpace=wrap;html=1;" vertex="1" parent="1">
          <mxGeometry x="-470" y="340.2" width="210" height="30" as="geometry" />
        </mxCell>
        <mxCell id="tTwz_c5ANhp3bgcHJJ_s-80" style="edgeStyle=orthogonalEdgeStyle;rounded=0;orthogonalLoop=1;jettySize=auto;html=1;" edge="1" parent="1" source="tTwz_c5ANhp3bgcHJJ_s-74" target="tTwz_c5ANhp3bgcHJJ_s-14">
          <mxGeometry relative="1" as="geometry">
            <Array as="points">
              <mxPoint x="20" y="401" />
              <mxPoint x="20" y="485" />
            </Array>
          </mxGeometry>
        </mxCell>
        <mxCell id="tTwz_c5ANhp3bgcHJJ_s-74" value="RestV2RecipeController" style="rounded=0;whiteSpace=wrap;html=1;" vertex="1" parent="1">
          <mxGeometry x="-470" y="385.40000000000003" width="210" height="30" as="geometry" />
        </mxCell>
        <mxCell id="tTwz_c5ANhp3bgcHJJ_s-81" style="edgeStyle=orthogonalEdgeStyle;rounded=0;orthogonalLoop=1;jettySize=auto;html=1;" edge="1" parent="1" source="tTwz_c5ANhp3bgcHJJ_s-75" target="tTwz_c5ANhp3bgcHJJ_s-15">
          <mxGeometry relative="1" as="geometry">
            <Array as="points">
              <mxPoint x="-10" y="500" />
              <mxPoint x="-10" y="525" />
            </Array>
          </mxGeometry>
        </mxCell>
        <mxCell id="tTwz_c5ANhp3bgcHJJ_s-75" value="RestV1StepController" style="rounded=0;whiteSpace=wrap;html=1;" vertex="1" parent="1">
          <mxGeometry x="-470" y="484.8" width="210" height="30" as="geometry" />
        </mxCell>
        <mxCell id="tTwz_c5ANhp3bgcHJJ_s-82" style="edgeStyle=orthogonalEdgeStyle;rounded=0;orthogonalLoop=1;jettySize=auto;html=1;" edge="1" parent="1" source="tTwz_c5ANhp3bgcHJJ_s-76" target="tTwz_c5ANhp3bgcHJJ_s-15">
          <mxGeometry relative="1" as="geometry">
            <Array as="points">
              <mxPoint x="-10" y="545" />
              <mxPoint x="-10" y="525" />
            </Array>
          </mxGeometry>
        </mxCell>
        <mxCell id="tTwz_c5ANhp3bgcHJJ_s-76" value="RestV2StepController" style="rounded=0;whiteSpace=wrap;html=1;" vertex="1" parent="1">
          <mxGeometry x="-470" y="529.8" width="210" height="30" as="geometry" />
        </mxCell>
        <mxCell id="tTwz_c5ANhp3bgcHJJ_s-83" style="edgeStyle=orthogonalEdgeStyle;rounded=0;orthogonalLoop=1;jettySize=auto;html=1;" edge="1" parent="1" source="tTwz_c5ANhp3bgcHJJ_s-77" target="tTwz_c5ANhp3bgcHJJ_s-16">
          <mxGeometry relative="1" as="geometry">
            <Array as="points">
              <mxPoint x="20" y="627" />
              <mxPoint x="20" y="565" />
            </Array>
          </mxGeometry>
        </mxCell>
        <mxCell id="tTwz_c5ANhp3bgcHJJ_s-77" value="RestV1QuantifiedIngredientController" style="rounded=0;whiteSpace=wrap;html=1;" vertex="1" parent="1">
          <mxGeometry x="-470" y="612.04" width="210" height="30" as="geometry" />
        </mxCell>
        <mxCell id="tTwz_c5ANhp3bgcHJJ_s-84" style="edgeStyle=orthogonalEdgeStyle;rounded=0;orthogonalLoop=1;jettySize=auto;html=1;" edge="1" parent="1" source="tTwz_c5ANhp3bgcHJJ_s-78" target="tTwz_c5ANhp3bgcHJJ_s-16">
          <mxGeometry relative="1" as="geometry">
            <Array as="points">
              <mxPoint x="-395" y="675" />
              <mxPoint x="20" y="675" />
              <mxPoint x="20" y="565" />
            </Array>
          </mxGeometry>
        </mxCell>
        <mxCell id="tTwz_c5ANhp3bgcHJJ_s-78" value="RestV2QuantifiedIngredientController" style="rounded=0;whiteSpace=wrap;html=1;" vertex="1" parent="1">
          <mxGeometry x="-470" y="659.8" width="210" height="30" as="geometry" />
        </mxCell>
        <mxCell id="tTwz_c5ANhp3bgcHJJ_s-85" value="&lt;font style=&quot;font-size: 8px;&quot;&gt;RecipeRequestDto&lt;/font&gt;" style="rounded=0;whiteSpace=wrap;html=1;" vertex="1" parent="1">
          <mxGeometry x="-415" y="718" width="100" height="10" as="geometry" />
        </mxCell>
        <mxCell id="tTwz_c5ANhp3bgcHJJ_s-86" value="&lt;font style=&quot;font-size: 8px;&quot;&gt;RecipeResponseDto&lt;/font&gt;" style="rounded=0;whiteSpace=wrap;html=1;" vertex="1" parent="1">
          <mxGeometry x="-415" y="732.8" width="100" height="10" as="geometry" />
        </mxCell>
        <mxCell id="tTwz_c5ANhp3bgcHJJ_s-87" value="&lt;font style=&quot;font-size: 8px;&quot;&gt;StepRequestDto&lt;/font&gt;" style="rounded=0;whiteSpace=wrap;html=1;" vertex="1" parent="1">
          <mxGeometry x="-415" y="748" width="100" height="10" as="geometry" />
        </mxCell>
        <mxCell id="tTwz_c5ANhp3bgcHJJ_s-88" value="&lt;font style=&quot;font-size: 8px;&quot;&gt;StepResponseDto&lt;/font&gt;" style="rounded=0;whiteSpace=wrap;html=1;" vertex="1" parent="1">
          <mxGeometry x="-415" y="762.8" width="100" height="10" as="geometry" />
        </mxCell>
        <mxCell id="tTwz_c5ANhp3bgcHJJ_s-89" value="&lt;font style=&quot;font-size: 6px;&quot;&gt;QuantifiedIngredientRequestDto&lt;/font&gt;" style="rounded=0;whiteSpace=wrap;html=1;" vertex="1" parent="1">
          <mxGeometry x="-415" y="777.8" width="100" height="10" as="geometry" />
        </mxCell>
        <mxCell id="tTwz_c5ANhp3bgcHJJ_s-90" value="&lt;font style=&quot;font-size: 6px;&quot;&gt;QuantifiedIngredientResponseDto&lt;/font&gt;" style="rounded=0;whiteSpace=wrap;html=1;" vertex="1" parent="1">
          <mxGeometry x="-415" y="792.8" width="100" height="10" as="geometry" />
        </mxCell>
        <mxCell id="tTwz_c5ANhp3bgcHJJ_s-91" value="&lt;font style=&quot;font-size: 7px;&quot;&gt;TotalIngredientsResponseDto&lt;/font&gt;" style="rounded=0;whiteSpace=wrap;html=1;" vertex="1" parent="1">
          <mxGeometry x="-415" y="808" width="100" height="10" as="geometry" />
        </mxCell>
        <mxCell id="tTwz_c5ANhp3bgcHJJ_s-92" value="&lt;font style=&quot;font-size: 7px;&quot;&gt;AssociatedTagsResponseDto&lt;/font&gt;" style="rounded=0;whiteSpace=wrap;html=1;" vertex="1" parent="1">
          <mxGeometry x="-415" y="824" width="100" height="10" as="geometry" />
        </mxCell>
        <mxCell id="tTwz_c5ANhp3bgcHJJ_s-94" value="&lt;font style=&quot;font-size: 8px;&quot;&gt;RecipeRequestDto&lt;/font&gt;" style="rounded=0;whiteSpace=wrap;html=1;" vertex="1" parent="1">
          <mxGeometry x="-430" y="160" width="100" height="10" as="geometry" />
        </mxCell>
        <mxCell id="tTwz_c5ANhp3bgcHJJ_s-95" value="&lt;font style=&quot;font-size: 8px;&quot;&gt;RecipeResponseDto&lt;/font&gt;" style="rounded=0;whiteSpace=wrap;html=1;" vertex="1" parent="1">
          <mxGeometry x="-430" y="174.79999999999995" width="100" height="10" as="geometry" />
        </mxCell>
        <mxCell id="tTwz_c5ANhp3bgcHJJ_s-96" value="&lt;font style=&quot;font-size: 8px;&quot;&gt;StepRequestDto&lt;/font&gt;" style="rounded=0;whiteSpace=wrap;html=1;" vertex="1" parent="1">
          <mxGeometry x="-430" y="190" width="100" height="10" as="geometry" />
        </mxCell>
        <mxCell id="tTwz_c5ANhp3bgcHJJ_s-97" value="&lt;font style=&quot;font-size: 8px;&quot;&gt;StepResponseDto&lt;/font&gt;" style="rounded=0;whiteSpace=wrap;html=1;" vertex="1" parent="1">
          <mxGeometry x="-430" y="204.79999999999995" width="100" height="10" as="geometry" />
        </mxCell>
        <mxCell id="tTwz_c5ANhp3bgcHJJ_s-98" value="&lt;font style=&quot;font-size: 6px;&quot;&gt;QuantifiedIngredientRequestDto&lt;/font&gt;" style="rounded=0;whiteSpace=wrap;html=1;" vertex="1" parent="1">
          <mxGeometry x="-430" y="219.79999999999995" width="100" height="10" as="geometry" />
        </mxCell>
        <mxCell id="tTwz_c5ANhp3bgcHJJ_s-99" value="&lt;font style=&quot;font-size: 6px;&quot;&gt;QuantifiedIngredientResponseDto&lt;/font&gt;" style="rounded=0;whiteSpace=wrap;html=1;" vertex="1" parent="1">
          <mxGeometry x="-430" y="234.79999999999995" width="100" height="10" as="geometry" />
        </mxCell>
        <mxCell id="tTwz_c5ANhp3bgcHJJ_s-100" value="&lt;font style=&quot;font-size: 7px;&quot;&gt;TotalIngredientsResponseDto&lt;/font&gt;" style="rounded=0;whiteSpace=wrap;html=1;" vertex="1" parent="1">
          <mxGeometry x="-430" y="250" width="100" height="10" as="geometry" />
        </mxCell>
        <mxCell id="tTwz_c5ANhp3bgcHJJ_s-101" value="&lt;font style=&quot;font-size: 7px;&quot;&gt;AssociatedTagsResponseDto&lt;/font&gt;" style="rounded=0;whiteSpace=wrap;html=1;" vertex="1" parent="1">
          <mxGeometry x="-430" y="266" width="100" height="10" as="geometry" />
        </mxCell>
      </root>
    </mxGraphModel>
  </diagram>
</mxfile>
